<svg width="166" height="68" viewBox="0 0 166 68" fill="none" xmlns="http://www.w3.org/2000/svg">
<path d="M58.9561 46.6342C50.4349 64.062 31.2345 72.5334 16.0709 65.5557C0.907261 58.578 -4.47741 38.7935 4.04387 21.3658C12.5651 3.93803 31.7655 -4.53339 46.9291 2.44431C62.0927 9.42201 67.4774 29.2065 58.9561 46.6342Z" fill="url(#paint0_linear_4_22)"/>
<path d="M55.3262 45.0137C47.1862 61.659 29.9374 70.2513 16.8 64.2051C3.66247 58.1588 -0.388832 39.7636 7.75112 23.1183C15.8911 6.47291 33.1398 -2.11936 46.2773 3.92689C59.4148 9.97315 63.4661 28.3683 55.3262 45.0137Z" fill="#171717"/>
<path d="M25.4084 52C24.0084 52 23.3084 51.3 23.3084 49.9V20.2C23.3084 18.8 24.0084 18.1 25.4084 18.1H43.8084C44.4584 18.1 44.9667 18.2917 45.3334 18.675C45.7167 19.0417 45.9084 19.55 45.9084 20.2C45.9084 21.6 45.2084 22.3 43.8084 22.3H27.5084V32.8H37.5584C38.9584 32.8 39.6584 33.5 39.6584 34.9C39.6584 36.3 38.9584 37 37.5584 37H27.5084V49.9C27.5084 51.3 26.8084 52 25.4084 52Z" fill="url(#paint1_linear_4_22)"/>
<path d="M72.673 28.44C71.4063 28.44 70.773 27.8 70.773 26.52V25.34C70.773 24.0867 71.4063 23.46 72.673 23.46H73.833C75.0463 23.46 75.653 24.0867 75.653 25.34V26.52C75.653 27.8 75.0463 28.44 73.833 28.44H72.673ZM73.233 52C72.113 52 71.553 51.44 71.553 50.32V33.4C71.553 32.28 72.113 31.72 73.233 31.72C74.353 31.72 74.913 32.28 74.913 33.4V50.32C74.913 51.44 74.353 52 73.233 52ZM82.1127 52C80.9927 52 80.4327 51.44 80.4327 50.32V33.4C80.4327 32.28 80.9927 31.72 82.1127 31.72C83.2327 31.72 83.7927 32.28 83.7927 33.4V34.06C85.206 32.5 87.286 31.72 90.0327 31.72H91.1527C93.8193 31.72 95.7927 32.36 97.0727 33.64C98.3527 34.92 98.9927 36.8933 98.9927 39.56V50.32C98.9927 51.44 98.4327 52 97.3127 52C96.1927 52 95.6327 51.44 95.6327 50.32V39.56C95.6327 37.8133 95.3127 36.6333 94.6727 36.02C94.046 35.3933 92.8727 35.08 91.1527 35.08H90.0327C88.4327 35.08 87.0393 35.2667 85.8527 35.64C84.666 36 83.9793 36.5733 83.7927 37.36V50.32C83.7927 51.44 83.2327 52 82.1127 52ZM110.997 52C108.344 52 106.37 51.36 105.077 50.08C103.797 48.8 103.157 46.84 103.157 44.2V39.56C103.157 36.88 103.797 34.9067 105.077 33.64C106.37 32.36 108.344 31.72 110.997 31.72H114.277C116.944 31.72 118.917 32.36 120.197 33.64C121.477 34.92 122.117 36.8933 122.117 39.56V44.16C122.117 46.8133 121.477 48.7867 120.197 50.08C118.917 51.36 116.944 52 114.277 52H110.997ZM106.517 44.2C106.517 45.92 106.83 47.0933 107.457 47.72C108.084 48.3333 109.264 48.64 110.997 48.64H114.277C116.024 48.64 117.204 48.3267 117.817 47.7C118.444 47.0733 118.757 45.8933 118.757 44.16V39.56C118.757 37.8133 118.444 36.6333 117.817 36.02C117.204 35.3933 116.024 35.08 114.277 35.08H110.997C109.837 35.08 108.93 35.2133 108.277 35.48C107.637 35.7333 107.184 36.1867 106.917 36.84C106.65 37.48 106.517 38.3867 106.517 39.56V44.2ZM133.807 50.76C133.634 51.1733 133.387 51.4867 133.067 51.7C132.761 51.9 132.367 52 131.887 52C131.047 52 130.447 51.56 130.087 50.68L123.287 34.12C122.821 33.0533 123.114 32.32 124.167 31.92C125.167 31.4533 125.901 31.7467 126.367 32.8L132.727 48.32H131.167L138.127 32.72C138.354 32.28 138.661 31.98 139.047 31.82C139.447 31.66 139.887 31.6933 140.367 31.92C141.354 32.3867 141.621 33.1333 141.167 34.16L133.807 50.76ZM149.991 52C147.751 52 146.085 51.4533 144.991 50.36C143.898 49.2667 143.351 47.6 143.351 45.36C143.351 43.12 143.891 41.4533 144.971 40.36C146.065 39.2667 147.738 38.72 149.991 38.72H158.451C158.371 37.32 158.005 36.3667 157.351 35.86C156.698 35.34 155.578 35.08 153.991 35.08H151.671C150.338 35.08 149.345 35.1733 148.691 35.36C148.038 35.5333 147.578 35.8533 147.311 36.32C147.071 36.88 146.825 37.2667 146.571 37.48C146.318 37.6933 145.938 37.8 145.431 37.8C144.871 37.8 144.431 37.6467 144.111 37.34C143.791 37.02 143.698 36.6 143.831 36.08C144.231 34.5733 145.065 33.4733 146.331 32.78C147.611 32.0733 149.391 31.72 151.671 31.72H153.991C156.658 31.72 158.631 32.36 159.911 33.64C161.191 34.92 161.831 36.8933 161.831 39.56V50.32C161.831 51.44 161.271 52 160.151 52C159.031 52 158.471 51.44 158.471 50.32V49.42C157.045 51.14 154.965 52 152.231 52H149.991ZM149.991 48.64H152.231C153.218 48.64 154.145 48.5533 155.011 48.38C155.878 48.1933 156.618 47.86 157.231 47.38C157.858 46.9 158.271 46.2133 158.471 45.32V42.08H149.991C148.671 42.08 147.791 42.3 147.351 42.74C146.925 43.18 146.711 44.0533 146.711 45.36C146.711 46.68 146.925 47.56 147.351 48C147.791 48.4267 148.671 48.64 149.991 48.64Z" fill="#4A4A4A"/>
<defs>
<linearGradient id="paint0_linear_4_22" x1="31.5" y1="0" x2="31.5" y2="68" gradientUnits="userSpaceOnUse">
<stop stop-color="#2AA3FF"/>
<stop offset="1" stop-color="#196299"/>
</linearGradient>
<linearGradient id="paint1_linear_4_22" x1="32" y1="4" x2="32" y2="63" gradientUnits="userSpaceOnUse">
<stop stop-color="#2AA3FF"/>
<stop offset="1" stop-color="#196299"/>
</linearGradient>
</defs>
</svg>
