<svg width="63" height="68" viewBox="0 0 63 68" fill="none" xmlns="http://www.w3.org/2000/svg">
<path d="M58.9561 46.6342C50.4349 64.062 31.2345 72.5334 16.0709 65.5557C0.907261 58.578 -4.47741 38.7935 4.04387 21.3658C12.5651 3.93803 31.7655 -4.53339 46.9291 2.44431C62.0927 9.42201 67.4774 29.2065 58.9561 46.6342Z" fill="url(#paint0_linear_4_23)"/>
<path d="M55.3262 45.0137C47.1862 61.659 29.9374 70.2513 16.8 64.2051C3.66247 58.1588 -0.388832 39.7636 7.75112 23.1183C15.8911 6.47291 33.1398 -2.11936 46.2773 3.92689C59.4148 9.97315 63.4661 28.3683 55.3262 45.0137Z" fill="#171717"/>
<path d="M25.4084 52C24.0084 52 23.3084 51.3 23.3084 49.9V20.2C23.3084 18.8 24.0084 18.1 25.4084 18.1H43.8084C44.4584 18.1 44.9667 18.2917 45.3334 18.675C45.7167 19.0417 45.9084 19.55 45.9084 20.2C45.9084 21.6 45.2084 22.3 43.8084 22.3H27.5084V32.8H37.5584C38.9584 32.8 39.6584 33.5 39.6584 34.9C39.6584 36.3 38.9584 37 37.5584 37H27.5084V49.9C27.5084 51.3 26.8084 52 25.4084 52Z" fill="url(#paint1_linear_4_23)"/>
<defs>
<linearGradient id="paint0_linear_4_23" x1="31.5" y1="0" x2="31.5" y2="68" gradientUnits="userSpaceOnUse">
<stop stop-color="#2AA3FF"/>
<stop offset="1" stop-color="#196299"/>
</linearGradient>
<linearGradient id="paint1_linear_4_23" x1="32" y1="4" x2="32" y2="63" gradientUnits="userSpaceOnUse">
<stop stop-color="#2AA3FF"/>
<stop offset="1" stop-color="#196299"/>
</linearGradient>
</defs>
</svg>
